<?xml version="1.0" encoding="UTF-8"?>
<svg version="1.1" viewBox="0 0 1600 1600" width="1280" height="1280" xmlns="http://www.w3.org/2000/svg">
<path transform="translate(568,252)" d="m0 0c8.49 5.09 15.3 12.8 17.9 22.5 0.731 4.5 1.44 9 2.06 13.5 0.122 0.88 0.245 1.76 0.371 2.67 2.02 15 3.22 30.1 4.32 45.1 0.1 1.37 0.1 1.37 0.202 2.77 0.19 2.62 0.376 5.25 0.56 7.87 0.0561 0.789 0.112 1.58 0.17 2.39 0.255 3.72 0.446 7.42 0.381 11.2 0.713-0.0105 1.43-0.0209 2.16-0.0317 43.6-0.553 85.2 8.67 124 29.1 2.91 1.5 5.87 2.9 8.82 4.32 16.1 8.05 31.6 18.2 44.4 31 0.608 0.597 1.22 1.19 1.84 1.81 1.22 1.2 2.42 2.41 3.61 3.65 3.17 3.09 4.35 4.16 8.93 4.25 3.24-1.07 4.34-1.55 6.25-4.26 2.96-3.84 6.26-6.74 10-9.81 1.09-0.935 2.17-1.87 3.25-2.81 1.25-1.06 2.5-2.13 3.75-3.19 0.895-0.762 1.79-1.52 2.71-2.31 0.962-0.806 1.92-1.61 2.91-2.44 0.9-0.758 1.8-1.52 2.73-2.3 2.65-1.95 2.65-1.95 5.42-3.03 0.735-0.304 1.47-0.608 2.23-0.922 0.33-0.99 0.66-1.98 1-3 1.32-0.685 2.66-1.35 4-2 1.36-1.31 2.69-2.65 4-4 7.27-5.96 14.9-11.5 22.5-17 0.773-0.557 1.55-1.11 2.34-1.69 2.09-1.27 3.76-1.88 6.16-2.31v-2c0.928-0.433 1.86-0.866 2.81-1.31 3.07-1.42 3.07-1.42 4.66-3.18 1.65-1.63 3.05-2.37 5.15-3.32 3.14-1.49 5.91-3.19 8.75-5.19 4.61-3.16 9.4-5.1 14.6-7 0.775-0.358 1.55-0.717 2.35-1.09 7.93-2.73 17.9-1.73 25.4 1.84 1.12 0.619 1.12 0.619 2.27 1.25 1.15 0.619 1.15 0.619 2.33 1.25 9.08 5.44 16 14.5 19.3 24.6 0.53 2.78 0.54 5.42 0.543 8.26l0.0061 3.65c-0.00689 1.92-0.00689 1.92-0.0139 3.87-0.00266 1.3-0.00532 2.6-0.00806 3.93-0.0363 7.41-0.153 14.8-0.554 22.2-0.0392 0.737-0.0783 1.47-0.119 2.23-0.311 4.88-0.311 4.88-1.44 6.02-0.217 1.73-0.374 3.48-0.508 5.22-1.31 15.6-3.33 31-5.99 46.4-0.149 0.876-0.299 1.75-0.453 2.66-1.66 9.68-3.49 19.2-6.05 28.7-0.371 1.47-0.739 2.94-1.11 4.41-3.49 13.7-7.64 27.1-11.9 40.6-0.396 1.26-0.396 1.26-0.799 2.54-0.662 2.09-1.33 4.18-2.01 6.27-0.536 1.65-0.536 1.65-1.08 3.33-1.11 2.86-2.5 5.25-4.11 7.86-0.598 1.4-1.16 2.82-1.69 4.25-5.88 15.1-13.2 30.4-22.3 43.8h-2c-0.244 0.87-0.487 1.74-0.738 2.64-1.37 3.64-3.07 6.11-5.45 9.18l-2.44 3.16c-0.782 0.999-1.56 2-2.37 3.03-0.628 0.824-1.26 1.65-1.9 2.5-5.24 6.85-10.7 13.7-17.1 19.5h-2v3c2.31 1.88 2.31 1.88 5.31 3.69 3.94 2.52 7.81 5.08 11.6 7.88 8.32 6.12 16.9 11.8 25.5 17.6 10.5 7.16 21 14.4 31.4 21.7 5.79 4.06 11.6 8.1 17.4 12.1 2.63 1.82 5.25 3.66 7.87 5.51 3.53 2.48 7.09 4.88 10.7 7.25 6.34 4.2 12.5 8.62 18.7 13.1 7.78 5.58 15.7 11 23.6 16.4 4.75 3.25 9.48 6.52 14.2 9.83 3.16 2.2 6.33 4.37 9.51 6.53 13.4 9.12 26.5 18.4 39.3 28.4 0.839 0.655 1.68 1.31 2.54 1.98 5.74 4.53 11.3 9.27 16.8 14.1 3.12 2.77 3.12 2.77 6.64 4.95v2c0.99 0.33 1.98 0.66 3 1v2c0.556 0.23 1.11 0.461 1.68 0.698 2.95 1.66 4.99 3.73 7.38 6.13 0.473 0.474 0.946 0.947 1.43 1.44 0.997 1 1.99 2 2.99 3.01 1.51 1.53 3.02 3.04 4.54 4.56 12 12 12 12 12 15.2 0.577 0.22 1.16 0.441 1.75 0.668 2.95 1.74 4.31 3.84 6.25 6.64 2.56 3.67 5.18 7.21 8 10.7 10.8 13.7 20.5 27.7 29 43 0.496 0.826 0.993 1.65 1.5 2.5 12.5 20.8 12.5 20.8 12.5 26.5h2c0.242 0.617 0.485 1.23 0.734 1.87 1.64 4.14 3.3 8.26 5.14 12.3 2.93 6.51 5.51 13.2 8.12 19.8 0.289 0.731 0.577 1.46 0.875 2.21 4.48 11.6 8.04 23.5 11.1 35.6 0.255 0.996 0.255 0.996 0.515 2.01 5.83 22.9 9.5 45.6 11.5 69.2 0.108 1.2 0.108 1.2 0.218 2.43 3.21 36.5 1.92 75.7-13 110-1.84 4.28-3.43 8.64-5.05 13-1.19 2.87-2.56 5.28-4.21 7.91-0.893 1.5-1.78 3.01-2.67 4.51-7.1 12-14.4 23.2-23.1 34.1-0.576 0.725-1.15 1.45-1.75 2.2-0.816 1-0.816 1-1.65 2.03-0.49 0.607-0.979 1.21-1.48 1.84-0.432 0.432-0.864 0.865-1.31 1.31h-2c-0.227 0.722-0.454 1.44-0.688 2.19-1.58 3.38-3.52 5.37-6.31 7.81h-2c-0.206 0.557-0.412 1.11-0.625 1.69-1.88 3.17-4.5 5.11-7.38 7.31-0.694 0.545-1.39 1.09-2.1 1.65-5.63 4.35-5.63 4.35-7.9 4.35-0.206 0.578-0.412 1.16-0.625 1.75-1.89 3.09-4.33 4.3-7.38 6.25-1.04 0.686-2.08 1.37-3.16 2.08-12.6 8.17-24.7 15.3-38.9 20.2-1.8 0.632-3.59 1.3-5.38 1.98-6.62 2.48-13.3 4.55-20.1 6.38-0.743 0.202-1.49 0.405-2.25 0.614-12.9 3.35-25.9 4.22-39.1 4.81-1.36 0.0629-1.36 0.0629-2.75 0.127-21.1 0.962-42.3 1.04-63.4 1.01-5.52-0.00673-11-0.0016-16.6 0.00188-10.7 0.00498-21.5-5.18e-4 -32.2-0.00985-12.6-0.0105-25.1-0.0103-37.7-0.00983-23.1 5.13e-4 -46.2-0.00945-69.3-0.0245-21-0.0136-42-0.0199-63-0.0192-1.35 4.04e-5 -2.7 8.08e-5 -4.05 1.21e-4 -1 3.05e-5 -1 3.05e-5 -2.02 6.17e-5 -3.36 1.01e-4 -6.73 1.91e-4 -10.1 2.7e-4 -0.664 1.67e-5 -1.33 3.34e-5 -2.01 5.06e-5 -21.5 4.45e-4 -42.9-0.00668-64.4-0.0144-8.72-3e-3 -17.4-0.00408-26.2-0.00453-10.6-6.87e-4 -21.3-0.00522-31.9-0.0143-5.41-0.00457-10.8-0.00768-16.2-0.00641-37.1 0.00655-37.1 0.00655-55.6-0.546-1.18-0.0324-2.36-0.0648-3.57-0.0982-13.7-0.489-25.8-3.62-38.2-9.5-0.813-0.367-1.63-0.735-2.46-1.11-29.2-13.8-54.4-37.9-68.5-66.9v-3h-2c-0.381-0.961-0.381-0.961-0.77-1.94-1.56-3.93-3.13-7.83-4.86-11.7-1.55-3.81-2.56-7.35-3.38-11.4 0.33-0.66 0.66-1.32 1-2h-2c-1.7-8.64-3.39-17.2-4-26h-1c-0.0231-11.6-0.0409-23.1-0.0518-34.7-0.00523-5.37-0.0123-10.7-0.0236-16.1-0.0108-5.18-0.0168-10.4-0.0194-15.5-0.00185-1.98-0.00547-3.96-0.0109-5.94-0.00722-2.77-0.00826-5.53-0.0078-8.3-0.0036-0.825-0.00719-1.65-0.0109-2.5 0.0104-5.67 0.0104-5.67 1.12-7.9 0.122-1.55 0.185-3.1 0.218-4.65 0.036-1.48 0.036-1.48 0.0728-2.99 0.0227-1.09 0.0454-2.19 0.0688-3.32 0.0611-2.42 0.123-4.84 0.186-7.26 0.0328-1.3 0.0656-2.61 0.0994-3.95 0.722-28.3 2.09-56.5 3.75-84.7 0.171-2.93 0.341-5.86 0.51-8.79 0.268-4.64 0.542-9.28 0.821-13.9 0.103-1.73 0.206-3.45 0.306-5.18 0.139-2.37 0.284-4.73 0.43-7.1 0.06-1.05 0.06-1.05 0.121-2.12 0.305-4.78 0.305-4.78 1.42-7.01 0.221-1.47 0.394-2.96 0.541-4.44 0.0936-0.923 0.187-1.85 0.284-2.8 0.0979-1.01 0.196-2.01 0.297-3.05 0.105-1.04 0.21-2.08 0.318-3.16 0.337-3.35 0.668-6.71 0.999-10.1 2.58-25.9 2.58-25.9 3.66-36 0.0771-0.744 0.154-1.49 0.234-2.25 0.552-5.05 0.552-5.05 1.67-7.28 0.325-1.79 0.607-3.59 0.867-5.4 0.243-1.66 0.243-1.66 0.49-3.36 0.256-1.79 0.256-1.79 0.517-3.61 0.178-1.22 0.356-2.43 0.539-3.69 0.816-5.58 1.62-11.2 2.41-16.8 1.15-8.04 2.42-15.9 4.56-23.7 0.561-2.24 0.893-4.36 1.12-6.65 0.491-3.74 1.43-6.81 2.68-10.3 0.892-2.69 1.58-5.39 2.25-8.15 2.31-9.45 5.05-18.8 7.94-28.1 0.207-0.668 0.413-1.34 0.626-2.02 1.1-3.5 2.25-6.96 3.51-10.4 12-33.2 12.2-70.8-2.64-103-4.84-10.2-10.7-20-16.7-29.5-1.17-2.13-1.17-2.13-1.17-5.13h-2c-3.18-6.62-5.85-13.2-8.1-20.2-0.763-2.35-1.58-4.66-2.46-6.97-0.481-1.27-0.96-2.54-1.44-3.81-0.238-0.628-0.476-1.26-0.722-1.9-2.3-6.42-3.39-12.9-4.4-19.6-0.332-2.16-0.668-4.31-1.01-6.47-0.143-0.943-0.286-1.89-0.434-2.86-0.218-2.14-0.218-2.14-1.43-3.17-1.59-11.3-1.24-23-1.25-34.4-0.00134-0.987-0.00268-1.97-0.00406-2.99 0.00596-20.3 0.184-41.2 5.57-60.9 0.717-2.83 1.2-5.64 1.63-8.53 1.15-7.21 3.07-14.2 5.06-21.2 0.406-1.44 0.406-1.44 0.819-2.9 0.907-3.2 1.82-6.4 2.74-9.6 0.293-1.03 0.586-2.05 0.887-3.11 1.55-5.32 3.28-10.3 5.55-15.4 0.309-1.09 0.619-2.19 0.938-3.31 3.24-11.2 8.5-22 13.3-32.7 1.47-3.27 2.69-6.57 3.75-10h2c0.0877-0.665 0.175-1.33 0.266-2.02 0.959-3.9 2.65-7.18 4.48-10.7 0.362-0.712 0.724-1.42 1.1-2.16 2.6-5.1 5.32-10.1 8.15-15.1 0.813-1.48 1.63-2.96 2.44-4.44 2.74-4.93 5.63-9.75 8.56-14.6 0.666-1.1 1.33-2.21 2.02-3.35 0.701-1.16 1.4-2.31 2.11-3.46 0.642-1.06 1.28-2.12 1.95-3.21 1.83-2.82 3.8-5.38 5.93-7.98 1.34-1.99 2.68-3.99 4-6 9.46-13.8 19.7-26.5 31.1-38.7 2.1-2.27 4.12-4.56 6.05-6.98 9.73-12.2 25.1-17.3 39.9-11.3zm-50 213c-5.83 9.33-7.73 18.1-5.57 29.2 3.22 8.5 10.2 13.6 17.9 17.7 4.72 2.01 9.05 2.29 14.1 2.32 1.1 0.0142 2.21 0.0284 3.34 0.043 7.02-0.512 13.4-4.58 18.4-9.42 5.88-9.45 7.55-18.9 5.05-29.9-2.76-8.35-6.48-14.8-14.4-18.9-13.7-6.28-29.1-2.77-38.9 8.94zm-101 9 1 2zm-5 24 1 4zm285 31.2c-5.97 7.71-9.52 16.1-8.69 25.8 1.67 8.52 4.89 16 11.9 21.3 7.69 4.72 18.1 6.75 27.1 5.69 7.49-2.35 14.8-6.48 19-13.2 1.11-2.58 1.11-2.58 1-4.75h2c3.1-9.87 1.7-22-3-31-4.3-6.99-12-11.8-19.9-13.7-10.5-1.23-22.1 1.96-29.4 9.92zm-131 43.8c-3.35 5.12-3.2 8.67-2.31 14.4 0.0922 0.725 0.184 1.45 0.279 2.2 0.624 4.6 1.7 8.91 3.03 13.4 0.328 1.54 0.643 3.08 0.938 4.62 0.794 3.61 1.73 6.42 4.06 9.38 4.46 2.75 8.92 2.54 14 2 2.55-0.78 4.62-1.76 7-3v-2c0.887-0.247 1.77-0.495 2.69-0.75 3.55-1.34 5.45-2.79 8.31-5.25 2.33-1.78 4.67-3.55 7.01-5.32 2.46-2.08 3.86-3.74 4.29-6.99 0.173-6.96 0.173-6.96-3.3-12.7-4.98-3.02-10.3-5.23-15.8-7.18-3.91-1.45-7.74-3.11-11.6-4.73-7.19-2.96-12.5-3.39-18.6 1.91zm-105 157 1 2zm-20 96 1 2zm-5 19 1 3zm-4 20 1 2zm-8 49 1 2zm-8 69v7h1v-7h-1zm-2 34 1 2zm272 2.07c-1.65 2.95-1.47 5.87-1.42 9.16-4.38e-4 0.732-8.76e-4 1.46-0.00133 2.22 0.00209 2.42 0.0254 4.84 0.0489 7.26 0.0056 1.68 0.00987 3.35 0.0129 5.03 0.0115 4.41 0.0409 8.83 0.0741 13.2 0.0307 4.5 0.0444 9.01 0.0595 13.5 0.0322 8.84 0.0834 17.7 0.146 26.5 7.38 0.132 14.8 0.263 22.1 0.391 3.43 0.0597 6.86 0.12 10.3 0.182 18.7 0.344 18.7 0.344 37.4 0.521 0.733 0.00649 1.47 0.013 2.22 0.0197 1.64 0.00153 3.29-0.0494 4.93-0.113 1.67-1.67 1.13-3.7 1.14-5.93-0.00202-0.704-0.00405-1.41-0.00613-2.13 0.00175-0.738 0.0035-1.48 0.00531-2.24 0.00442-2.45 0.00148-4.9-0.00189-7.36 6.73e-4 -1.7 0.00164-3.4 0.0029-5.09 0.00148-3.56-6.78e-4 -7.13-0.00534-10.7-0.00569-4.57-0.00242-9.15 0.00357-13.7 0.00361-3.51 0.00247-7.02-1.28e-4 -10.5-6.69e-4 -1.69 1.57e-4 -3.37 0.00248-5.06 0.00253-2.36-0.00132-4.71-0.0069-7.07 0.00304-1.05 0.00304-1.05 0.00613-2.13 0.0292-3.65 0.0292-3.65-1.14-7.06-9.6-0.0695-19.2-0.123-28.8-0.155-4.46-0.0157-8.91-0.0369-13.4-0.0709-4.3-0.0326-8.6-0.0505-12.9-0.0583-1.64-0.00555-3.28-0.0164-4.92-0.0326-2.3-0.0217-4.59-0.0248-6.89-0.0234-1.96-0.00999-1.96-0.00999-3.96-0.0202-3.07 0.144-3.07 0.144-5.09 1.43zm101 0.93c-0.998 4.35-1.13 8.55-1.13 13-0.00175 0.672-0.0035 1.34-0.00531 2.04-0.00437 2.2-0.0015 4.41 0.00189 6.61-6.74e-4 1.54-0.00164 3.07-0.0029 4.61-0.00147 3.21 6.57e-4 6.42 0.00534 9.63 0.00572 4.12 0.0024 8.24-0.00357 12.4-0.0036 3.17-0.00247 6.33 1.28e-4 9.5 6.69e-4 1.52-1.57e-4 3.04-0.00248 4.56-0.00253 2.12 0.00131 4.23 0.0069 6.35 7.96e-4 1.21 0.00159 2.41 0.00241 3.65-0.18 2.62-0.18 2.62 1.13 3.7 2.4 0.095 4.78 0.126 7.18 0.114 1.13 2.19e-4 1.13 2.19e-4 2.28 4.43e-4 2.49-6.99e-4 4.99-0.00849 7.48-0.0163 1.72-0.00186 3.45-0.00329 5.17-0.00429 4.55-0.00383 9.1-0.0137 13.6-0.0247 4.64-0.0102 9.28-0.0148 13.9-0.0198 9.11-0.0107 18.2-0.0278 27.3-0.0488 0.953-30.2 0.953-30.2 0.562-60.4-0.102-3.14-0.201-6.29-0.301-9.43-0.0498-1.56-0.0997-3.12-0.15-4.69-0.0554-1.74-0.0554-1.74-0.112-3.51-9.74-0.0463-19.5-0.0818-29.2-0.104-4.52-0.0105-9.05-0.0246-13.6-0.0473-4.36-0.0217-8.73-0.0337-13.1-0.0389-1.67-0.0037-3.33-0.0109-5-0.0217-2.33-0.0145-4.66-0.0165-6.99-0.0156-0.694-0.00719-1.39-0.0144-2.1-0.0218-3.95-0.0832-3.95-0.0832-7.01 2.25zm-102 102c-0.193 2.4-0.262 4.69-0.243 7.1-0.0019 0.73-0.0038 1.46-0.00575 2.21-0.00371 2.42 7e-3 4.84 0.0182 7.26 0.00119 1.68 0.00165 3.35 0.00139 5.03 0.00157 3.51 0.00986 7.03 0.0233 10.5 0.017 4.52 0.0208 9.03 0.0201 13.5 2.71e-4 3.46 0.00575 6.92 0.013 10.4 0.00319 1.67 0.00516 3.33 0.00589 5 0.00216 2.32 0.0109 4.65 0.0216 6.97-4.53e-4 0.695-9.06e-4 1.39-0.00137 2.1-0.247 3.21-0.247 3.21 1.15 5.86 5.45 0.852 10.7 1.15 16.3 1.13 1.17 0.00144 1.17 0.00144 2.37 0.0029 1.66 6.78e-4 3.32-0.00115 4.99-0.00534 2.42-0.00519 4.85-1.26e-4 7.27 0.00635 15.4 0.00577 30.7-0.567 46.1-1.14 0.0231-10 0.0409-20 0.0518-30.1 0.00523-4.65 0.0123-9.31 0.0236-14 0.0108-4.49 0.0168-8.97 0.0194-13.5 0.00185-1.72 0.00547-3.43 0.0109-5.15 0.00721-2.39 0.00826-4.79 0.0078-7.18 0.00539-1.07 0.00539-1.07 0.0109-2.17 0.278-3.29 0.278-3.29-1.12-6.01-2.33-0.106-4.63-0.147-6.97-0.145-0.728-0.00336-1.46-0.00672-2.21-0.0102-2.42-0.00954-4.84-0.0115-7.26-0.0125-1.68-0.00321-3.35-0.00657-5.03-0.0101-3.52-6e-3 -7.03-0.00784-10.5-0.00725-4.51 1.02e-4 -9.03-0.0136-13.5-0.0308-3.46-0.0111-6.92-0.0131-10.4-0.0126-1.66-0.00118-3.33-0.00562-4.99-0.0133-2.32-0.00976-4.65-0.00694-6.97-8.95e-4 -1.04-0.00843-1.04-0.00843-2.1-0.017-3.94-0.0719-3.94-0.0719-7 2.26zm102 0c-1 4.36-1.12 8.56-1.11 13-1.46e-4 0.674-2.92e-4 1.35-4.43e-4 2.04 6.92e-4 2.21 0.00845 4.41 0.0163 6.62 0.00187 1.54 0.00329 3.08 0.00429 4.62 0.0038 4.03 0.0136 8.07 0.0247 12.1 0.0103 4.12 0.0148 8.25 0.0198 12.4 0.0107 8.08 0.0278 16.2 0.0488 24.2 4.1 1.27 7.76 2.25 12.1 2.24 1.4 0.00461 1.4 0.00461 2.83 0.00932 0.992-0.00719 1.98-0.0144 3.01-0.0218 1.05-4.58e-4 2.1-9.16e-4 3.18-0.00139 2.22-0.00301 4.45-0.0109 6.67-0.0233 3.33-0.018 6.66-0.0205 9.99-0.0203 2.18-0.00493 4.36-0.0108 6.54-0.0176 0.963-0.00111 1.93-0.00223 2.92-0.00337 10.3-0.0673 20.5-0.673 30.8-1.16v-78c-18.5-0.0619-18.5-0.0619-37.4-0.125-3.9-0.0182-7.79-0.0364-11.8-0.0552-3.49-0.00669-3.49-0.00669-6.97-0.0107-1.56-0.00308-3.11-0.0101-4.67-0.0203-2.35-0.0146-4.71-0.0167-7.06-0.0159-0.695-0.0072-1.39-0.0144-2.11-0.0218-3.94-0.0827-3.94-0.0827-7 2.25zm-379 12v19h1v-19h-1z" fill="#FBFCFE"/>
<path transform="translate(787,1128)" d="m0 0h1v12h-1v-12z" fill="#000100"/>
<path transform="translate(1036,1356)" d="m0 0 4 1z" fill="#000100"/>
<path transform="translate(863,1058)" d="m0 0 1 4z" fill="#FCFDFF"/>
<path transform="translate(688,1019)" d="m0 0c3 1 3 1 3 1z" fill="#000100"/>
</svg>
